<?xml version="1.0"?>
<svg xmlns="http://www.w3.org/2000/svg" height="512px" viewBox="0 0 511 511.99987" width="512px" class=""><g><path d="m429.996094 499.050781-150-150c-5.855469-5.859375-5.855469-15.355469 0-21.214843l48.199218-48.199219c5.859376-5.859375 15.355469-5.859375 21.214844 0l149.996094 150c24.785156 24.78125 8.703125 56.691406-2.019531 67.402343-16.472657 16.488282-47.074219 22.324219-67.390625 2.011719zm0 0" fill="#2633d8" data-original="#2633D8" class="active-path" data-old_color="#2633d8" style="fill:#297700"/><path d="m499.40625 429.636719-149.996094-150c-5.855468-5.859375-15.355468-5.859375-21.214844 0l-24.035156 24.039062 193.226563 193.363281c10.722656-10.710937 26.804687-42.621093 2.019531-67.402343zm0 0" fill="#141b73" data-original="#141B73" class="" data-old_color="#141b73" style="fill:#04930F"/><path d="m240.433594 206.734375h-96.398438c-8.285156 0-15-6.71875-15-15 0-8.285156 6.714844-15 15-15h96.398438c8.285156 0 15 6.714844 15 15 0 8.28125-6.714844 15-15 15zm0 0" fill="#2633d8" data-original="#2633D8" class="active-path" data-old_color="#2633d8" style="fill:#297700"/><path d="m207.234375 206.734375h33.199219c8.285156 0 15-6.71875 15-15 0-8.285156-6.714844-15-15-15h-63.199219zm0 0" fill="#141b73" data-original="#141B73" class="" data-old_color="#141b73" style="fill:#04930F"/><path d="m192.234375 0c-105.722656 0-191.734375 86.011719-191.734375 191.734375 0 105.71875 86.011719 191.730469 191.734375 191.730469 105.71875 0 191.730469-86.011719 191.730469-191.730469 0-105.722656-86.011719-191.734375-191.730469-191.734375zm0 319.199219c-70.285156 0-127.46875-57.179688-127.46875-127.464844s57.183594-127.46875 127.46875-127.46875 127.464844 57.183594 127.464844 127.46875-57.179688 127.464844-127.464844 127.464844zm0 0" fill="#00ceff" data-original="#00CEFF" class="" data-old_color="#00ceff" style="fill:#57FF00"/><path d="m102.144531 101.644531c23.078125-23.082031 54.945313-37.378906 90.089844-37.378906 70.285156 0 127.464844 57.183594 127.464844 127.46875 0 35.144531-14.292969 67.007813-37.375 90.089844l45.421875 45.421875c34.71875-34.71875 56.222656-82.652344 56.222656-135.511719 0-105.722656-86.015625-191.734375-191.734375-191.734375-52.863281 0-100.796875 21.503906-135.511719 56.222656zm0 0" fill="#0092dd" data-original="#0092DD" class="" style="fill:#02AF18" data-old_color="#0092dd"/></g> </svg>
